#!OML:ASF X:\2005_08_12_Meinard\c3d\meinard.ASF
:FULLY-SPECIFIED
:DEGREES
438
root 0.986431 17.0964 -3.17158 -6.30808 -69.2957 -5.80294
lowerback 37.691 -2.68094 -1.62056
upperback 5.49736 -4.75371 -0.911455
thorax -12.4453 -2.32697 1.94462
lowerneck 1.68251 -15.0357 -0.581475
upperneck -22.166 -18.8898 15.6226
head -5.35385 -10.6994 5.75756
rclavicle 3.79679e-014 -1.59028e-014
rhumerus 35.6449 30.8963 37.8213
rradius 30.377
rwrist -69.6265
rhand -35.7955 -23.8063
rfingers 7.12502
rthumb -8.91247 -53.5981
lclavicle 3.79679e-014 -1.59028e-014
lhumerus 4.42511 -32.0605 77.438
lradius 93.112
lwrist 6.63705
lhand -15.2328 -9.10733
lfingers 7.12502
lthumb 10.9402 20.5876
rfemur -2.45974 -10.4155 18.4489
rtibia 32.4172
rfoot -15.6252 -8.58241
rtoes -10.4911
lfemur 8.87171 -2.65282 -10.0482
ltibia 29.536
lfoot -18.4949 12.189
ltoes -28.8117
439
root 1.01226 17.0975 -3.13449 -6.27423 -69.3113 -5.87709
lowerback 37.7254 -2.61508 -1.82493
upperback 5.50372 -4.74458 -0.844105
thorax -12.4302 -2.31622 2.1208
lowerneck 1.71805 -15.0056 -0.596922
upperneck -22.0675 -18.86 15.5425
head -5.33841 -10.6731 5.73205
rclavicle 2.38542e-015 -2.62396e-014
rhumerus 36.5192 32.0545 39.4029
rradius 30.2092
rwrist -67.0974
rhand -35.0697 -22.7659
rfingers 7.12502
rthumb -8.212 -52.5863
lclavicle 2.38542e-015 -2.62396e-014
lhumerus 5.27687 -32.5903 77.3693
lradius 93.5156
lwrist 6.82944
lhand -15.5244 -9.21063
lfingers 7.12502
lthumb 10.6589 20.499
rfemur -2.5144 -10.2326 18.3407
rtibia 32.4991
rfoot -15.5028 -8.71309
rtoes -10.6369
lfemur 8.92803 -2.8978 -10.1518
ltibia 29.47
lfoot -18.5245 11.8054
ltoes -28.8077
440
root 1.03653 17.099 -3.096 -6.28353 -69.3342 -5.93959
lowerback 37.7628 -2.56039 -1.99603
upperback 5.52465 -4.74282 -0.813967
thorax -12.4048 -2.31125 2.24222
lowerneck 1.7213 -14.9792 -0.515794
upperneck -21.9205 -18.8416 15.3859
head -5.32072 -10.6501 5.6667
rclavicle 5.80451e-014 1.03368e-014
rhumerus 37.1976 33.0212 40.7286
rradius 30.2263
rwrist -65.0422
rhand -34.899 -21.3474
rfingers 7.12502
rthumb -8.04729 -51.1742
lclavicle 5.80451e-014 1.03368e-014
lhumerus 6.15508 -33.1272 77.2254
lradius 93.9508
lwrist 7.02007
lhand -15.7589 -9.29476
lfingers 7.12502
lthumb 10.4327 20.4264
rfemur -2.54651 -10.0871 18.2111
rtibia 32.6218
rfoot -15.3794 -8.79062
rtoes -10.8259
lfemur 9.04436 -3.14712 -10.2665
ltibia 29.3647
lfoot -18.533 11.4312
ltoes -28.7717
441
root 1.06161 17.0998 -3.05845 -6.31393 -69.3576 -5.95932
lowerback 37.7836 -2.49427 -2.18772
upperback 5.54405 -4.73336 -0.778079
thorax -12.3736 -2.30217 2.37663
lowerneck 1.72345 -14.957 -0.396778
upperneck -21.7982 -18.8294 15.2025
head -5.31721 -10.6315 5.59143
rclavicle 4.07509e-014 -2.38542e-014
rhumerus 37.7061 33.7716 41.8477
rradius 30.3818
rwrist -63.7735
rhand -35.3427 -19.6627
rfingers 7.12502
rthumb -8.47546 -49.4726
lclavicle 4.07509e-014 -2.38542e-014
lhumerus 7.0653 -33.6687 77.0341
lradius 94.4063
lwrist 7.31345
lhand -15.9641 -9.37712
lfingers 7.12502
lthumb 10.2348 20.3539
rfemur -2.62443 -9.95433 18.0639
rtibia 32.7845
rfoot -15.2665 -8.83305
rtoes -11.006
lfemur 9.15425 -3.37672 -10.3914
ltibia 29.2288
lfoot -18.5486 11.0499
ltoes -28.7347
442
root 1.08649 17.1004 -3.01993 -6.37832 -69.3894 -5.96348
lowerback 37.8129 -2.43921 -2.36386
upperback 5.56078 -4.73258 -0.745469
thorax -12.3495 -2.2974 2.50354
lowerneck 1.75866 -14.9229 -0.35609
upperneck -21.6581 -18.7979 15.0647
head -5.3012 -10.6016 5.53982
rclavicle -1.80894e-014 4.69132e-014
rhumerus 38.0818 34.256 42.6998
rradius 30.6368
rwrist -63.2863
rhand -36.1969 -18.0478
rfingers 7.12502
rthumb -9.29978 -47.8226
lclavicle -1.80894e-014 4.69132e-014
lhumerus 8.01346 -34.1572 76.7791
lradius 94.8511
lwrist 7.62946
lhand -16.1139 -9.5525
lfingers 7.12502
lthumb 10.0903 20.1856
rfemur -2.6918 -9.83655 17.8978
rtibia 32.9836
rfoot -15.1444 -8.84662
rtoes -11.11
lfemur 9.30853 -3.61269 -10.5393
ltibia 29.0632
lfoot -18.5671 10.7026
ltoes -28.7323
443
root 1.11258 17.1006 -2.9817 -6.38065 -69.4144 -6.03455
lowerback 37.8344 -2.40541 -2.49455
upperback 5.58975 -4.74186 -0.721523
thorax -12.312 -2.29981 2.60081
lowerneck 1.73906 -14.89 -0.213459
upperneck -21.4848 -18.778 14.8297
head -5.28666 -10.5742 5.44118
rclavicle -3.24019e-014 1.66979e-014
rhumerus 38.2907 34.4174 43.1805
rradius 30.9004
rwrist -63.5793
rhand -37.2842 -16.6205
rfingers 7.12502
rthumb -10.3488 -46.3458
lclavicle -3.24019e-014 1.66979e-014
lhumerus 8.98513 -34.6423 76.4555
lradius 95.3496
lwrist 7.9959
lhand -16.2905 -9.62646
lfingers 7.12502
lthumb 9.91987 20.1198
rfemur -2.78842 -9.74462 17.7578
rtibia 33.224
rfoot -15.0269 -8.87372
rtoes -11.3827
lfemur 9.46384 -3.83483 -10.6622
ltibia 28.8837
lfoot -18.5684 10.3697
ltoes -28.6736
444
root 1.1382 17.1011 -2.94232 -6.40937 -69.4393 -6.04829
lowerback 37.8047 -2.38849 -2.59325
upperback 5.62265 -4.76012 -0.71746
thorax -12.2552 -2.30805 2.66142
lowerneck 1.73038 -14.8556 -0.177886
upperneck -21.3138 -18.7501 14.6875
head -5.25309 -10.5439 5.38236
rclavicle -6.93758e-014 3.97569e-014
rhumerus 38.2396 34.2077 43.1707
rradius 31.1632
rwrist -64.5272
rhand -38.442 -15.5589
rfingers 7.12502
rthumb -11.4655 -45.2254
lclavicle -6.93758e-014 3.97569e-014
lhumerus 9.99331 -35.1015 76.0895
lradius 95.8501
lwrist 8.36419
lhand -16.4162 -9.75211
lfingers 7.12502
lthumb 9.79861 19.9999
rfemur -2.9185 -9.68838 17.5827
rtibia 33.4888
rfoot -14.894 -8.82889
rtoes -11.5761
lfemur 9.6083 -4.05122 -10.8146
ltibia 28.6873
lfoot -18.5875 10.0682
ltoes -28.5996
445
root 1.16397 17.1002 -2.90384 -6.51307 -69.474 -5.99496
lowerback 37.7927 -2.37184 -2.71078
upperback 5.64258 -4.78711 -0.716989
thorax -12.2182 -2.31855 2.73292
lowerneck 1.77454 -14.8192 -0.200514
upperneck -21.1378 -18.7208 14.5425
head -5.22077 -10.5088 5.33429
rclavicle -1.25234e-014 1.03368e-014
rhumerus 38.0606 33.6815 42.7948
rradius 31.4244
rwrist -66.1427
rhand -39.6043 -15.0796
rfingers 7.12502
rthumb -12.5863 -44.6805
lclavicle -1.25234e-014 1.03368e-014
lhumerus 10.9724 -35.5405 75.7568
lradius 96.3191
lwrist 8.75499
lhand -16.5069 -9.88245
lfingers 7.12502
lthumb 9.71114 19.8737
rfemur -3.05378 -9.65557 17.3748
rtibia 33.7799
rfoot -14.7569 -8.74128
rtoes -11.8302
lfemur 9.78389 -4.10504 -10.974
ltibia 28.4806
lfoot -18.5784 9.77833
ltoes -28.8109
446
root 1.18882 17.1006 -2.86565 -6.55638 -69.5106 -6.0074
lowerback 37.7556 -2.37319 -2.78199
upperback 5.68236 -4.81874 -0.722665
thorax -12.1529 -2.33461 2.77363
lowerneck 1.77002 -14.7815 -0.26844
upperneck -20.9159 -18.6926 14.4221
head -5.15833 -10.4713 5.29026
rclavicle -1.31198e-014 2.78299e-014
rhumerus 37.6815 32.8108 42.0224
rradius 31.7036
rwrist -68.3363
rhand -40.7499 -15.1578
rfingers 7.12502
rthumb -13.6906 -44.6875
lclavicle -1.31198e-014 2.78299e-014
lhumerus 11.9961 -35.9404 75.3789
lradius 96.7888
lwrist 9.17382
lhand -16.5566 -10.0394
lfingers 7.12502
lthumb 9.66319 19.7189
rfemur -3.21464 -9.5851 17.1941
rtibia 34.0905
rfoot -14.5961 -8.65932
rtoes -12.0108
lfemur 9.96807 -4.16319 -11.1132
ltibia 28.2593
lfoot -18.5674 9.52327
ltoes -28.9979
447
root 1.21411 17.1021 -2.82719 -6.65185 -69.547 -5.952
lowerback 37.7358 -2.36719 -2.86944
upperback 5.6924 -4.8469 -0.727811
thorax -12.1269 -2.34591 2.82399
lowerneck 1.92205 -14.7365 -0.388905
upperneck -20.7715 -18.6431 14.3414
head -5.13773 -10.4276 5.28447
rclavicle 2.66371e-014 1.59028e-014
rhumerus 37.2737 31.7634 41.0688
rradius 31.9571
rwrist -71.106
rhand -42.0099 -15.7947
rfingers 7.12502
rthumb -14.9047 -45.2385
lclavicle 2.66371e-014 1.59028e-014
lhumerus 12.9862 -36.359 75.0022
lradius 97.23
lwrist 9.58758
lhand -16.608 -10.1409
lfingers 7.12502
lthumb 9.61362 19.6197
rfemur -3.4106 -9.5553 16.9739
rtibia 34.4124
rfoot -14.3914 -8.54585
rtoes -12.2683
lfemur 10.1361 -4.1703 -11.2744
ltibia 28.0231
lfoot -18.5535 9.30214
ltoes -29.0351
448
root 1.2389 17.1029 -2.78978 -6.69617 -69.5882 -5.97267
lowerback 37.7234 -2.37243 -2.94171
upperback 5.72424 -4.88497 -0.735318
thorax -12.0793 -2.36414 2.86731
lowerneck 2.05889 -14.6599 -0.489855
upperneck -20.6291 -18.5464 14.2863
head -5.11794 -10.3648 5.28215
rclavicle 1.43125e-014 1.59028e-015
rhumerus 36.8635 30.5494 39.9646
rradius 32.1648
rwrist -74.1257
rhand -43.3493 -16.8712
rfingers 7.12502
rthumb -16.1947 -46.2147
lclavicle 1.43125e-014 1.59028e-015
lhumerus 14.0112 -36.7336 74.5922
lradius 97.656
lwrist 9.98258
lhand -16.6563 -10.224
lfingers 7.12502
lthumb 9.56699 19.5388
rfemur -3.5927 -9.50799 16.7837
rtibia 34.7454
rfoot -14.1714 -8.43533
rtoes -12.3836
lfemur 10.3304 -4.13716 -11.3934
ltibia 27.7708
lfoot -18.5447 9.10313
ltoes -29.0664
